<svg width="56" height="42" viewBox="0 0 56 42" fill="none" xmlns="http://www.w3.org/2000/svg">
<path d="M47.0866 24.175C42.3696 24.1143 38.5037 27.8708 38.4429 32.5878C38.3821 37.3048 42.1386 41.1708 46.8556 41.2316C51.5727 41.2924 55.4386 37.5358 55.4994 32.8188C55.5602 28.1018 51.8036 24.2358 47.0866 24.175ZM46.8921 38.1437C43.8892 38.1072 41.4821 35.6271 41.5308 32.6243C41.5672 29.6215 44.0473 27.2144 47.0501 27.263C50.053 27.2995 52.4601 29.7795 52.4115 32.7823C52.375 35.7852 49.8949 38.1923 46.8921 38.1437Z" fill="#7C7A6B"/>
<path d="M47.0622 25.391C43.026 25.3302 39.695 28.564 39.6464 32.6002C39.5856 36.6364 42.8194 39.9675 46.8556 40.0161C50.8918 40.0769 54.2228 36.8431 54.2715 32.8069C54.3322 28.7707 51.0984 25.4396 47.0622 25.391ZM46.892 37.7792C44.0958 37.7427 41.8589 35.4328 41.8954 32.6367C41.9319 29.8405 44.2418 27.6036 47.038 27.6401C49.8341 27.6765 52.071 29.9864 52.0346 32.7826C51.9981 35.5787 49.6882 37.8157 46.892 37.7792Z" fill="#3D3231"/>
<path d="M47.0016 30.12C45.5792 30.0957 44.3999 31.2385 44.3878 32.673C44.3756 34.1076 45.5063 35.2747 46.9409 35.2868C48.3633 35.3111 49.5425 34.1684 49.5546 32.7338C49.5789 31.3114 48.4362 30.1322 47.0016 30.12Z" fill="#7C7A6B"/>
<path d="M10.5055 24.1262C5.8128 24.0654 1.959 27.8099 1.88605 32.5026C1.81311 37.1953 5.56971 41.0491 10.2624 41.122C14.9551 41.1828 18.8089 37.4384 18.8818 32.7457C18.9548 28.053 15.1982 24.1992 10.5055 24.1262ZM10.311 38.0463C7.32033 38.0098 4.92533 35.5418 4.97396 32.5512C5.01044 29.5605 7.47838 27.1655 10.4691 27.2142C13.4597 27.2506 15.8547 29.7185 15.8061 32.7092C15.7575 35.6999 13.3017 38.0949 10.311 38.0463Z" fill="#7C7A6B"/>
<path d="M10.4933 25.5972C6.60298 25.5486 3.40564 28.6487 3.35701 32.539C3.30838 36.4294 6.4085 39.6267 10.2988 39.6753C14.1891 39.724 17.3865 36.6239 17.4351 32.7336C17.4837 28.8433 14.3836 25.6459 10.4933 25.5972ZM10.3353 37.1223C7.85525 37.0858 5.8736 35.0556 5.91007 32.5755C5.94654 30.0954 7.97679 28.1138 10.4569 28.1503C12.9369 28.1867 14.9186 30.217 14.8821 32.6971C14.8456 35.1772 12.8154 37.1588 10.3353 37.1223Z" fill="#3D3231"/>
<path d="M10.4325 29.4876C8.65751 29.4633 7.18649 30.8857 7.16217 32.6606C7.13786 34.4356 8.56031 35.9066 10.3353 35.9309C12.1102 35.9552 13.5812 34.5329 13.6056 32.7579C13.6299 30.983 12.2074 29.5119 10.4325 29.4876Z" fill="#7C7A6B"/>
<path d="M20.6931 34.4843H10.5783C9.55707 34.4843 8.71826 33.6576 8.71826 32.6242C8.71826 31.603 9.54491 30.7642 10.5783 30.7642H19.1734C20.1947 30.7642 21.0335 31.5909 21.0335 32.6242C21.0335 33.6454 20.7053 34.4843 20.7053 34.4843H20.6931Z" fill="#3D3231"/>
<path d="M0.889156 28.6125C1.08367 28.7341 1.33894 28.6611 1.46051 28.4666L5.16852 22.2299C5.2901 22.0354 5.21708 21.7801 5.02257 21.6586C4.82805 21.537 4.57279 21.6099 4.45121 21.8044L0.743275 28.0411C0.621702 28.2356 0.69464 28.4909 0.889156 28.6125Z" fill="#3D3231"/>
<path d="M51.9858 25.537C52.1682 25.537 52.2533 25.3303 52.1317 25.1966C48.9465 21.8776 42.4303 22.7773 40.0718 26.4852C40.0718 26.4852 40.0718 26.4852 40.0718 26.4974C40.0718 26.9229 41.0443 27.4578 41.8103 27.7861L46.2598 29.6339C45.4696 26.4974 47.743 25.4032 51.9858 25.5248V25.537Z" fill="#ED4F70"/>
<path d="M47.8157 32.3084C46.9769 24.1752 45.129 21.3547 41.6156 13.2945C41.4454 12.8082 40.9105 12.5407 40.4242 12.6988C39.9379 12.869 39.6704 13.4039 39.8284 13.8902L46.0286 32.9041C46.1988 33.3904 46.7337 33.6578 47.22 33.4998C47.7063 33.3296 47.9738 32.7947 47.8157 32.3084Z" fill="#3D3231"/>
<path d="M46.3085 16.1754L39.0871 7.15479L39.6098 11.1424C38.9655 11.1424 36.3274 12.589 36.5949 13.1726L35.8533 18.2543C35.8168 18.4975 35.9262 18.7528 36.145 18.8865L38.1753 20.1873C35.4642 22.1811 33.0085 25.2934 31.9508 26.7401C31.5982 27.2264 31.4888 27.8464 31.659 28.4178L32.8382 32.3081L28.6927 32.2473C28.5832 32.2473 28.486 32.2473 28.3766 32.223C26.5287 32.0042 25.471 29.9861 26.1883 28.2719L28.717 22.1203C29.1547 21.0505 28.3765 19.8591 27.2216 19.8469L6.87042 19.5673C5.26567 19.543 3.92837 20.8438 3.90405 22.4486C3.90405 22.4486 19.0763 36.5509 27.5864 36.6117L31.3429 36.6361C34.2607 36.6725 35.6222 34.5815 37.0203 32.612C36.6556 28.2597 40.6796 24.2965 46.2841 20.4669C47.3904 18.7771 47.4148 17.6708 46.3085 16.1754Z" fill="#FF6D97"/>
<path d="M35.8656 18.23V18.2665C35.8291 18.5096 35.9385 18.7649 36.1452 18.8987L38.066 20.1265C39.9626 19.8469 41.9198 19.4457 43.4759 19.7861C43.8893 19.081 35.8656 18.23 35.8656 18.23Z" fill="#ED4F70"/>
<path d="M46.3082 16.1757L43.9133 13.1729H39.8406L45.5181 18.0966C45.822 18.364 46.211 18.4977 46.6122 18.4977H47.0985C47.1836 17.7318 46.9282 17.0145 46.3082 16.1757Z" fill="#A9C7BF"/>
<path d="M32.8382 32.3206L28.6927 32.2598C28.5832 32.2598 28.486 32.2355 28.3766 32.2355C18.2861 32.2355 3.90405 22.4611 3.90405 22.4611C3.90405 22.4611 19.0763 36.5635 27.5864 36.6243L31.3429 36.6486C34.2607 36.6851 35.6222 34.594 37.0203 32.6245C36.6556 28.2723 40.6796 24.309 46.2841 20.4795C41.251 21.914 34.3336 27.7495 32.8382 32.3206Z" fill="#ED4F70"/>
<path d="M11.8064 28.9773C13.5206 30.4362 10.6637 28.1992 13.3626 30.1079L26.1519 33.7429C26.006 33.1594 25.2158 30.5334 26.1884 28.2965L27.4041 25.3423C27.4041 25.3423 26.6261 25.865 25.5076 26.327C25.5076 26.327 26.1155 27.1051 25.7143 27.7251C25.0821 28.6855 20.4623 28.6977 11.8064 28.9895V28.9773Z" fill="#3D3231"/>
<path d="M32.8384 32.3206L28.6928 32.2598C28.6077 32.2598 28.5104 32.2598 28.4253 32.2477C26.6261 32.0653 25.5441 30.1567 26.1277 28.4668L24.9241 31.19C24.3892 32.4057 25.2645 33.7795 26.5896 33.7917L29.4101 33.8281C30.7231 33.8525 31.9752 33.2932 32.8384 32.3085V32.3206Z" fill="#3D3231"/>
<path d="M27.1488 19.1421L21.204 19.057C20.1342 19.0448 19.1737 18.4126 18.7239 17.4522L18.5658 17.1118L10.6029 17.2699C9.53304 17.2942 8.66985 18.3762 8.68201 19.6891C8.68201 20.1268 8.97383 20.4793 9.33855 20.4672L16.6572 20.3213L26.6504 27.0807L28.6807 22.3272C29.1062 22.3272 29.4709 22.0112 29.4831 21.5857C29.5196 20.2605 28.4618 19.1542 27.1367 19.1421H27.1488Z" fill="#3D3231"/>
<path d="M37.3486 24.9408C37.5188 24.722 37.4945 24.4059 37.2757 24.2357L36.8259 23.871C36.607 23.7008 36.2909 23.7251 36.1207 23.9439C35.9505 24.1627 35.9748 24.4788 36.1937 24.649L36.6435 25.0138C36.8623 25.184 37.1784 25.1596 37.3486 24.9408Z" fill="#AE5E00"/>
<path d="M35.9506 26.6791C36.1208 26.4603 36.0965 26.1442 35.8777 25.974L35.4278 25.6093C35.209 25.4391 34.893 25.4634 34.7228 25.6822C34.5526 25.901 34.5769 26.2171 34.7957 26.3873L35.2455 26.752C35.4644 26.9222 35.7804 26.8979 35.9506 26.6791Z" fill="#AE5E00"/>
<path d="M34.6011 28.3329C34.7713 28.114 34.747 27.798 34.5281 27.6278L34.0783 27.2631C33.8595 27.0929 33.5434 27.1172 33.3732 27.336C33.203 27.5548 33.2273 27.8709 33.4461 28.0411L33.8959 28.4058C34.1148 28.576 34.4309 28.5517 34.6011 28.3329Z" fill="#AE5E00"/>
<path d="M36.7163 3.65371C37.312 3.38625 37.5796 2.68112 37.3121 2.08542L36.6799 0.699511C36.4124 0.103807 35.7073 -0.163677 35.1116 0.103782L36.7163 3.65371Z" fill="#3D3231"/>
<path d="M39.1236 8.55319C38.9412 8.55319 38.771 8.40732 38.7588 8.22496L38.4185 4.7115C38.4063 4.56561 38.3941 4.40757 38.3334 4.29816C38.2969 4.21306 38.2118 4.11579 38.1389 4.01853L36.218 1.62355C36.0964 1.46551 36.1207 1.23453 36.2788 1.1008C36.4368 0.979231 36.6678 1.00357 36.8015 1.16161L38.7346 3.55659C38.8318 3.67816 38.9412 3.82403 39.0263 3.99423C39.1236 4.21306 39.1479 4.44405 39.1722 4.63856L39.5126 8.15202C39.537 8.35869 39.3789 8.52888 39.1844 8.55319C39.1722 8.55319 39.16 8.55319 39.1479 8.55319H39.1236Z" fill="#3D3231"/>
<path d="M41.6643 10.9114C42.0533 10.8749 42.2722 10.4373 42.0533 10.109C41.2145 8.84468 39.6583 6.34031 39.5246 6.32815C36.4488 5.92696 35.306 6.51051 35.1115 8.0788C35.0507 8.5894 34.9778 9.1243 34.9292 9.62275C34.8198 10.5832 35.6222 11.4099 36.5826 11.3369L41.6643 10.9114Z" fill="#FF6D97"/>
<path d="M34.7227 10.486L38.0051 10.182C38.5644 10.1334 38.9777 9.63498 38.9291 9.06359C38.8805 8.50436 38.382 8.091 37.8107 8.13963L34.5282 8.44356C33.969 8.49219 33.5556 8.99061 33.6042 9.562C33.6529 10.1212 34.1514 10.5346 34.7227 10.486Z" fill="#3D3231"/>
<path d="M44.5334 25.5733C44.5334 26.0352 44.9104 26.3999 45.3602 26.3999C45.81 26.3999 46.1869 26.0231 46.1869 25.5733C46.1869 25.1234 45.81 24.7466 45.3602 24.7466C44.9104 24.7466 44.5334 25.1234 44.5334 25.5733Z" fill="#F76A40"/>
<path d="M9.3505 20.4794L0.5 18.5829V17.6833L7.1257 17.5981L9.3505 20.4794Z" fill="#3D3231"/>
</svg>
