<svg width="30" height="30" viewBox="0 0 30 30" fill="none" xmlns="http://www.w3.org/2000/svg">
<path fill-rule="evenodd" clip-rule="evenodd" d="M0.87085 14.9999C0.87085 11.2527 2.35944 7.65887 5.00916 5.00916C7.65887 2.35944 11.2527 0.87085 14.9999 0.87085C18.7472 0.87085 22.341 2.35944 24.9907 5.00916C27.6404 7.65887 29.129 11.2527 29.129 14.9999C29.129 18.7472 27.6404 22.341 24.9907 24.9907C22.341 27.6404 18.7472 29.129 14.9999 29.129C11.2527 29.129 7.65887 27.6404 5.00916 24.9907C2.35944 22.341 0.87085 18.7472 0.87085 14.9999ZM14.9999 2.89752C11.7902 2.89752 8.71187 4.17259 6.44223 6.44223C4.17259 8.71187 2.89752 11.7902 2.89752 14.9999C2.89752 18.2097 4.17259 21.288 6.44223 23.5576C8.71187 25.8272 11.7902 27.1023 14.9999 27.1023C18.2097 27.1023 21.288 25.8272 23.5576 23.5576C25.8272 21.288 27.1023 18.2097 27.1023 14.9999C27.1023 11.7902 25.8272 8.71187 23.5576 6.44223C21.288 4.17259 18.2097 2.89752 14.9999 2.89752ZM20.0218 9.98018C20.2218 10.1802 20.3341 10.4515 20.3341 10.7343C20.3341 11.0172 20.2218 11.2884 20.0218 11.4885L16.5082 14.9999L20.0218 18.5114C20.2221 18.7117 20.3346 18.9833 20.3346 19.2666C20.3346 19.5498 20.2221 19.8215 20.0218 20.0218C19.8215 20.2221 19.5498 20.3346 19.2666 20.3346C18.9833 20.3346 18.7117 20.2221 18.5114 20.0218L14.9999 16.5082L11.4885 20.0218C11.3893 20.121 11.2715 20.1996 11.142 20.2533C11.0124 20.307 10.8735 20.3346 10.7333 20.3346C10.593 20.3346 10.4541 20.307 10.3245 20.2533C10.195 20.1996 10.0772 20.121 9.97805 20.0218C9.87888 19.9226 9.80021 19.8049 9.74653 19.6753C9.69286 19.5457 9.66524 19.4068 9.66524 19.2666C9.66524 19.1263 9.69286 18.9874 9.74653 18.8579C9.80021 18.7283 9.87888 18.6106 9.97805 18.5114L13.4917 14.9999L9.97805 11.4885C9.77776 11.2882 9.66524 11.0165 9.66524 10.7333C9.66524 10.45 9.77776 10.1783 9.97805 9.97805C10.1783 9.77776 10.45 9.66524 10.7333 9.66524C11.0165 9.66524 11.2882 9.77776 11.4885 9.97805L14.9999 13.4917L18.5114 9.97805C18.6105 9.87872 18.7282 9.7999 18.8578 9.74613C18.9874 9.69236 19.1263 9.66468 19.2666 9.66468C19.4069 9.66468 19.5458 9.69236 19.6754 9.74613C19.805 9.7999 19.9227 9.88085 20.0218 9.98018Z" fill="black"/>
</svg>
