<svg width="16" height="17" viewBox="0 0 16 17" fill="none" xmlns="http://www.w3.org/2000/svg">
<path d="M8.0002 14.204C7.89575 14.204 7.79131 14.1869 7.68686 14.1527C7.58286 14.1184 7.48686 14.0629 7.39886 13.986C6.92464 13.5504 6.44398 13.0649 5.95687 12.5293C5.46931 11.9942 5.02664 11.4402 4.62886 10.8673C4.23109 10.294 3.90509 9.70889 3.65086 9.112C3.39664 8.51511 3.26953 7.93244 3.26953 7.364C3.26953 5.95378 3.72864 4.79067 4.64686 3.87467C5.56553 2.95822 6.68331 2.5 8.0002 2.5C9.31709 2.5 10.4349 2.95822 11.3535 3.87467C12.2718 4.79067 12.7309 5.95378 12.7309 7.364C12.7309 7.93244 12.6038 8.51311 12.3495 9.106C12.0953 9.69844 11.7713 10.2833 11.3775 10.8607C10.9842 11.4384 10.544 11.9927 10.0569 12.5233C9.56931 13.054 9.08842 13.5373 8.6142 13.9733C8.52931 14.0502 8.43287 14.108 8.32487 14.1467C8.21642 14.1849 8.1082 14.204 8.0002 14.204ZM8.0022 8.32067C8.29909 8.32067 8.55242 8.21489 8.7622 8.00333C8.97198 7.79222 9.07687 7.53822 9.07687 7.24133C9.07687 6.94444 8.97131 6.69111 8.7602 6.48133C8.54864 6.27156 8.29464 6.16667 7.9982 6.16667C7.70175 6.16667 7.44842 6.27244 7.2382 6.484C7.02842 6.69511 6.92353 6.94911 6.92353 7.246C6.92353 7.54289 7.02909 7.79622 7.2402 8.006C7.45175 8.21578 7.70575 8.32067 8.0022 8.32067Z" fill="#9E9E9E"/>
</svg>
