<svg width="16" height="16" viewBox="0 0 16 16" fill="none" xmlns="http://www.w3.org/2000/svg">
<path d="M4.00002 14.6667C3.63335 14.6667 3.31958 14.5362 3.05869 14.2754C2.7978 14.0145 2.66713 13.7005 2.66669 13.3334V6.66669C2.66669 6.30002 2.79735 5.98624 3.05869 5.72535C3.32002 5.46447 3.6338 5.3338 4.00002 5.33335H4.66669V4.00002C4.66669 3.0778 4.9918 2.2918 5.64202 1.64202C6.29224 0.992243 7.07824 0.667131 8.00002 0.666687C8.92224 0.666687 9.70847 0.991798 10.3587 1.64202C11.0089 2.29224 11.3338 3.07824 11.3334 4.00002V5.33335H12C12.3667 5.33335 12.6807 5.46402 12.942 5.72535C13.2034 5.98669 13.3338 6.30047 13.3334 6.66669V13.3334C13.3334 13.7 13.2029 14.014 12.942 14.2754C12.6811 14.5367 12.3671 14.6671 12 14.6667H4.00002ZM8.00002 11.3334C8.36669 11.3334 8.68069 11.2029 8.94202 10.942C9.20335 10.6811 9.3338 10.3671 9.33335 10C9.33335 9.63335 9.20291 9.31958 8.94202 9.05869C8.68113 8.7978 8.36713 8.66713 8.00002 8.66669C7.63335 8.66669 7.31958 8.79735 7.05869 9.05869C6.7978 9.32002 6.66713 9.6338 6.66669 10C6.66669 10.3667 6.79735 10.6807 7.05869 10.942C7.32002 11.2034 7.6338 11.3338 8.00002 11.3334ZM6.00002 5.33335H10V4.00002C10 3.44446 9.80558 2.97224 9.41669 2.58335C9.0278 2.19446 8.55558 2.00002 8.00002 2.00002C7.44447 2.00002 6.97224 2.19446 6.58335 2.58335C6.19446 2.97224 6.00002 3.44446 6.00002 4.00002V5.33335Z" fill="#B7B7B7"/>
</svg>
