<svg width="53" height="36" viewBox="0 0 53 36" fill="none" xmlns="http://www.w3.org/2000/svg">
<path d="M44.9906 25.2261C44.9906 25.2261 44.9569 25.2261 44.9401 25.2092C44.9148 25.1924 44.9064 25.1503 44.9148 25.125C45.5298 23.4738 46.0353 21.9489 46.01 19.9439C46.0269 19.7754 46.0353 19.6153 46.0437 19.4552C46.0437 19.4131 46.0774 19.3794 46.1195 19.3794C46.1195 19.3794 46.1869 19.4047 46.1953 19.4468C46.2964 20.3651 46.5071 22.2438 46.9451 22.9851C47.6107 22.4207 48.3773 21.8141 49.144 21.5951H49.1608C49.1945 21.5951 49.2198 21.6119 49.2282 21.6456C49.245 21.6793 49.2282 21.7214 49.1945 21.7383C49.1187 21.7804 48.9754 22.3364 48.9754 23.3979C48.9754 23.7518 48.9923 24.0887 49.026 24.3752C49.026 24.4005 49.026 24.4257 49.0007 24.4426C48.9839 24.451 48.9671 24.4594 48.9502 24.4594H48.9333C48.6216 24.3752 48.2762 24.3331 47.9139 24.3331C46.9198 24.3331 45.8583 24.6616 45.0159 25.2261C44.999 25.2345 44.9906 25.2429 44.9738 25.2429L44.9906 25.2261Z" fill="#037874"/>
<path opacity="0.3" d="M48.6889 21.7721C48.5625 22.0249 48.4025 22.5219 48.4699 23.3391C48.4699 23.3391 46.5322 23.2212 45.0916 24.6618C45.0326 24.8134 44.982 24.9735 44.9231 25.1251C44.9147 25.1588 44.9231 25.1925 44.9484 25.2094C44.9652 25.2178 44.9821 25.2262 44.9989 25.2262C45.0158 25.2262 45.0326 25.2262 45.041 25.2094C45.8835 24.6365 46.9366 24.3163 47.9391 24.3163C48.3014 24.3163 48.6468 24.3585 48.9585 24.4427H48.9753C48.9922 24.4427 49.009 24.4427 49.0259 24.4259C49.0427 24.409 49.0512 24.3838 49.0512 24.3585C49.0175 24.0721 49.0006 23.7351 49.0006 23.3812C49.0006 22.3197 49.1438 21.7721 49.2197 21.7216C49.2534 21.7047 49.2702 21.6626 49.2533 21.6289L49.1438 21.5952C48.9922 21.6373 48.8406 21.7047 48.6889 21.7721Z" fill="url(#paint0_linear_417_8761)"/>
<path d="M1.32524 19.5901C0.912436 19.5901 0.575439 19.2531 0.575439 18.8403V16.3045C0.575439 15.8917 0.912436 15.5547 1.32524 15.5547C1.73805 15.5547 2.07505 15.8917 2.07505 16.3045V18.8403C2.07505 19.2531 1.73805 19.5901 1.32524 19.5901Z" fill="#FDD363"/>
<path opacity="0.3" d="M1.32547 15.5632C1.21595 15.5632 1.10643 15.5885 1.01376 15.6306V18.8994C1.01376 18.8994 0.79472 18.9752 0.592529 18.9331C0.643077 19.2953 0.946359 19.5818 1.32547 19.5818C1.73827 19.5818 2.07527 19.2448 2.07527 18.832V16.2962C2.07527 15.8834 1.73827 15.5464 1.32547 15.5464V15.5632Z" fill="url(#paint1_linear_417_8761)"/>
<path d="M19.405 20.9214H16.2289C16.187 20.9214 16.1531 20.9554 16.1531 20.9972V27.6274C16.1531 27.6693 16.187 27.7032 16.2289 27.7032H19.405C19.4468 27.7032 19.4808 27.6693 19.4808 27.6274V20.9972C19.4808 20.9554 19.4468 20.9214 19.405 20.9214Z" fill="#AD9C9F"/>
<path opacity="0.3" d="M17.2651 26.6754H19.4808V20.9972C19.4808 20.9972 19.4471 20.9214 19.405 20.9214H18.8826V25.1758C17.8885 24.881 17.4421 23.6847 17.2651 23.0023V25.9256L17.4841 26.0941H17.2651V26.667V26.6754Z" fill="url(#paint2_linear_417_8761)"/>
<path d="M19.4049 20.9974V27.6275H16.2288V20.9974H19.4049ZM19.4049 20.8457H16.2288C16.1445 20.8457 16.0771 20.9131 16.0771 20.9974V27.6275C16.0771 27.7118 16.1445 27.7792 16.2288 27.7792H19.4049C19.4891 27.7792 19.5565 27.7118 19.5565 27.6275V20.9974C19.5565 20.9131 19.4891 20.8457 19.4049 20.8457Z" fill="#222C4C"/>
<path d="M17.4755 21.5614C17.4755 21.5614 17.4081 21.5361 17.3997 21.5024C17.3407 21.1739 17.2902 20.8369 17.248 20.4915C17.248 20.4662 17.2481 20.4493 17.2649 20.4325C17.2818 20.4157 17.2986 20.4072 17.3238 20.4072H19.6322C19.8597 20.4072 20.045 20.5926 20.045 20.82V21.1486C20.045 21.3761 19.8597 21.5614 19.6322 21.5614H17.4755Z" fill="#89797C"/>
<path opacity="0.3" d="M19.666 20.4075V20.7529C19.666 20.9972 19.4638 21.1994 19.2195 21.1994H17.3577C17.3745 21.3005 17.3914 21.4016 17.4082 21.4942C17.4082 21.5279 17.4503 21.5532 17.484 21.5532H19.6407C19.6828 21.5532 19.725 21.5448 19.7671 21.5279C19.9187 21.4605 20.0283 21.3005 20.0283 21.1236V20.7613C20.0283 20.6855 20.003 20.6181 19.9693 20.5507C19.9019 20.458 19.7924 20.399 19.6744 20.3906L19.666 20.4075Z" fill="url(#paint3_linear_417_8761)"/>
<path d="M47.6692 35.6137C45.1587 35.6137 43.1199 33.575 43.1199 31.0644C43.1199 28.5539 45.1587 26.5151 47.6692 26.5151C50.1797 26.5151 52.2185 28.5539 52.2185 31.0644C52.2185 33.575 50.1797 35.6137 47.6692 35.6137Z" fill="#AD9C9F"/>
<path opacity="0.3" d="M50.3316 27.4082C50.9466 28.1833 51.3089 29.1605 51.3089 30.222C51.3089 32.7326 49.2701 34.7713 46.7596 34.7713C45.7655 34.7713 44.8472 34.4428 44.0974 33.9036C44.9314 34.9567 46.2204 35.639 47.661 35.639C50.1715 35.639 52.2103 33.6003 52.2103 31.0898C52.2103 29.5733 51.4605 28.2338 50.3232 27.4082H50.3316Z" fill="url(#paint4_linear_417_8761)"/>
<path d="M47.6693 26.5994C50.1377 26.5994 52.1428 28.6045 52.1428 31.0729C52.1428 33.5413 50.1377 35.5464 47.6693 35.5464C45.2009 35.5464 43.1958 33.5413 43.1958 31.0729C43.1958 28.6045 45.2009 26.5994 47.6693 26.5994ZM47.6693 26.4478C45.1166 26.4478 43.0442 28.5202 43.0442 31.0729C43.0442 33.6255 45.1166 35.698 47.6693 35.698C50.222 35.698 52.2944 33.6255 52.2944 31.0729C52.2944 28.5202 50.222 26.4478 47.6693 26.4478Z" fill="#222C4C"/>
<path d="M47.7537 32.3957C46.9281 32.3957 46.2542 31.7217 46.2542 30.8961C46.2542 30.0705 46.9281 29.3965 47.7537 29.3965C48.5793 29.3965 49.2533 30.0705 49.2533 30.8961C49.2533 31.7217 48.5793 32.3957 47.7537 32.3957Z" fill="#89797C"/>
<path opacity="0.4" d="M48.571 29.6325C48.8237 29.902 48.9753 30.2559 48.9753 30.6518C48.9753 31.4774 48.3014 32.1514 47.4758 32.1514C47.1725 32.1514 46.886 32.0587 46.6501 31.8987C46.9282 32.1935 47.3073 32.3789 47.7454 32.3789C48.571 32.3789 49.2449 31.7049 49.2449 30.8793C49.2449 30.357 48.9754 29.8936 48.571 29.624V29.6325Z" fill="url(#paint5_linear_417_8761)"/>
<path d="M47.7536 29.4725C48.5371 29.4725 49.1774 30.1127 49.1774 30.8962C49.1774 31.6797 48.5371 32.32 47.7536 32.32C46.9701 32.32 46.3299 31.6797 46.3299 30.8962C46.3299 30.1127 46.9701 29.4725 47.7536 29.4725ZM47.7536 29.3208C46.8859 29.3208 46.1782 30.0285 46.1782 30.8962C46.1782 31.764 46.8859 32.4716 47.7536 32.4716C48.6214 32.4716 49.3291 31.764 49.3291 30.8962C49.3291 30.0285 48.6214 29.3208 47.7536 29.3208Z" fill="#222C4C"/>
<path d="M47.7538 31.7553C47.282 31.7553 46.8945 31.3677 46.8945 30.8959C46.8945 30.4242 47.282 30.0366 47.7538 30.0366C48.2256 30.0366 48.6131 30.4242 48.6131 30.8959C48.6131 31.3677 48.2256 31.7553 47.7538 31.7553Z" fill="#F96A49"/>
<path opacity="0.4" d="M48.3856 30.3233C48.4193 30.416 48.4361 30.5087 48.4361 30.6014C48.4361 31.0732 48.0486 31.4607 47.5768 31.4607C47.3157 31.4607 47.0797 31.3427 46.9197 31.149C47.0376 31.486 47.3494 31.7218 47.7285 31.7218C48.2002 31.7218 48.5878 31.3343 48.5878 30.8625C48.5878 30.6519 48.5119 30.4666 48.3856 30.3149V30.3233Z" fill="url(#paint6_linear_417_8761)"/>
<path d="M47.7535 30.1126C48.1831 30.1126 48.537 30.4664 48.537 30.8961C48.537 31.3257 48.1831 31.6796 47.7535 31.6796C47.3238 31.6796 46.97 31.3257 46.97 30.8961C46.97 30.4664 47.3238 30.1126 47.7535 30.1126ZM47.7535 29.9609C47.2396 29.9609 46.8184 30.3822 46.8184 30.8961C46.8184 31.41 47.2396 31.8312 47.7535 31.8312C48.2674 31.8312 48.6887 31.41 48.6887 30.8961C48.6887 30.3822 48.2674 29.9609 47.7535 29.9609Z" fill="#222C4C"/>
<path d="M47.0125 30.8203C47.0125 30.8203 46.9704 30.8118 46.962 30.795L44.6536 28.1412C44.6536 28.1412 44.6283 28.0654 44.6536 28.0317L45.2854 27.4841C45.2854 27.4841 45.3191 27.4673 45.336 27.4673C45.3528 27.4673 45.3781 27.4757 45.3865 27.4926L47.6949 30.1463C47.6949 30.1463 47.7202 30.2306 47.6949 30.2558L47.063 30.8034C47.063 30.8034 47.0294 30.8203 47.0125 30.8203Z" fill="#89797C"/>
<path opacity="0.4" d="M47.7115 30.138L45.4031 27.4843C45.4031 27.4843 45.3694 27.459 45.3526 27.459C45.3357 27.459 45.3189 27.459 45.302 27.4758L45.1841 27.5769L47.3492 30.0622C47.3492 30.0622 47.3745 30.138 47.3492 30.1717L46.8353 30.6182L46.9785 30.7867C46.9785 30.7867 47.0122 30.812 47.0291 30.812C47.0459 30.812 47.0628 30.812 47.0796 30.7951L47.7115 30.2475C47.7115 30.2475 47.7452 30.1717 47.7115 30.138Z" fill="url(#paint7_linear_417_8761)"/>
<path d="M45.3443 27.5432L47.6526 30.197L47.0208 30.7446L44.7124 28.0908L45.3443 27.5432ZM45.3443 27.3916C45.3443 27.3916 45.2769 27.4 45.2432 27.4253L44.6113 27.9729C44.6113 27.9729 44.5608 28.0403 44.5608 28.074C44.5608 28.1077 44.5692 28.1582 44.5945 28.1835L46.9029 30.8373C46.9029 30.8373 46.9786 30.8878 47.0208 30.8878C47.0545 30.8878 47.0882 30.8794 47.1219 30.8541L47.7537 30.3065C47.7537 30.3065 47.8043 30.2391 47.8043 30.2054C47.8043 30.1717 47.7958 30.1212 47.7706 30.0959L45.4622 27.4421C45.4622 27.4421 45.3864 27.3916 45.3443 27.3916Z" fill="#222C4C"/>
<path d="M46.6754 28.6974C46.6838 28.6469 46.6754 28.5964 46.6417 28.5627L46.5322 28.4363C46.5322 28.4363 46.4563 28.3857 46.4142 28.3857C46.3973 28.3857 46.3721 28.3858 46.3552 28.3942L45.2769 28.8407C45.2348 28.8575 45.201 28.8996 45.1842 28.9502C45.1758 29.0007 45.1842 29.0513 45.2179 29.085L45.3274 29.2114C45.3274 29.2114 45.4032 29.2619 45.4453 29.2619C45.4622 29.2619 45.4875 29.2619 45.5043 29.2535L46.5827 28.807C46.6248 28.7901 46.6585 28.748 46.6754 28.6974Z" fill="#222C4C"/>
<path d="M47.2061 29.2956C47.2145 29.245 47.2061 29.1945 47.1724 29.1608L47.0629 29.0344C47.0629 29.0344 46.9871 28.9839 46.945 28.9839C46.9281 28.9839 46.9028 28.9839 46.886 28.9923L45.8076 29.4388C45.7655 29.4557 45.7318 29.4978 45.7149 29.5483C45.7065 29.5989 45.715 29.6494 45.7487 29.6831L45.8582 29.8095C45.8582 29.8095 45.934 29.8601 45.9761 29.8601C45.993 29.8601 46.0182 29.86 46.0351 29.8516L47.1135 29.4051C47.1556 29.3883 47.1893 29.3461 47.2061 29.2956Z" fill="#222C4C"/>
<path d="M47.7115 29.7506L47.6019 29.6243C47.6019 29.6243 47.5262 29.5737 47.484 29.5737C47.4672 29.5737 47.4419 29.5737 47.4251 29.5821L46.3467 30.0286C46.3046 30.0455 46.2709 30.0876 46.254 30.1382C46.2456 30.1887 46.254 30.2393 46.2877 30.273L46.3972 30.3993C46.3972 30.3993 46.4731 30.4499 46.5152 30.4499C46.532 30.4499 46.5573 30.4499 46.5742 30.4415L47.6525 29.995C47.6946 29.9781 47.7283 29.936 47.7452 29.8854C47.7536 29.8349 47.7452 29.7843 47.7115 29.7506Z" fill="#222C4C"/>
<path d="M46.1362 28.0992C46.1446 28.0487 46.1362 27.9981 46.1025 27.9644L45.993 27.838C45.993 27.838 45.9171 27.7875 45.875 27.7875C45.8582 27.7875 45.8329 27.7875 45.816 27.7959L45.5043 27.9223L44.3755 26.6165C44.3755 26.6165 44.3081 26.5659 44.2575 26.5659C44.2154 26.5659 44.1648 26.5912 44.1395 26.6249L43.971 26.8524C43.9289 26.9113 43.9289 26.9872 43.971 27.0461L44.9315 28.1582L44.7293 28.2424C44.6872 28.2593 44.6535 28.3014 44.6366 28.3519C44.6198 28.4025 44.6366 28.453 44.6703 28.4867L44.7798 28.6131C44.7798 28.6131 44.8557 28.6636 44.8978 28.6636C44.9146 28.6636 44.9399 28.6637 44.9568 28.6552L46.0351 28.2087C46.0772 28.1919 46.1109 28.1498 46.1277 28.0992H46.1362Z" fill="#222C4C"/>
<path d="M26.7006 1.95752H26.0687C26.0268 1.95752 25.9929 1.99146 25.9929 2.03334V28.5962C25.9929 28.638 26.0268 28.672 26.0687 28.672H26.7006C26.7424 28.672 26.7764 28.638 26.7764 28.5962V2.03334C26.7764 1.99146 26.7424 1.95752 26.7006 1.95752Z" fill="#037874"/>
<path opacity="0.3" d="M26.4479 2.00781H26.6838V28.4948C26.6838 28.4948 26.7259 28.5706 26.7765 28.5706H27.2735V28.6464C27.2735 28.6464 27.2314 28.7223 27.1808 28.7223H26.4479C26.3973 28.7223 26.3552 28.6886 26.3552 28.6464V2.08363C26.3552 2.08363 26.3973 2.00781 26.4479 2.00781Z" fill="url(#paint8_linear_417_8761)"/>
<path d="M26.7007 2.03347V28.5963H26.0689V2.03347H26.7007ZM26.7007 1.88184H26.0689C25.9846 1.88184 25.9172 1.94923 25.9172 2.03347V28.5963C25.9172 28.6805 25.9846 28.7479 26.0689 28.7479H26.7007C26.785 28.7479 26.8524 28.6805 26.8524 28.5963V2.03347C26.8524 1.94923 26.785 1.88184 26.7007 1.88184Z" fill="#222C4C"/>
<path d="M1.3256 15.6389C1.69628 15.6389 1.99956 15.9422 1.99956 16.3129V18.8487C1.99956 19.2194 1.69628 19.5143 1.3256 19.5143C0.954913 19.5143 0.651637 19.211 0.651637 18.8487V16.3129C0.651637 15.9422 0.954913 15.6389 1.3256 15.6389ZM1.3256 15.4873C0.870667 15.4873 0.5 15.858 0.5 16.3129V18.8487C0.5 19.3036 0.870667 19.6743 1.3256 19.6743C1.78053 19.6743 2.15124 19.3036 2.15124 18.8487V16.3129C2.15124 15.858 1.78053 15.4873 1.3256 15.4873Z" fill="#222C4C"/>
<path d="M7.39129 0.79491C3.8698 1.56155 1.85634 2.79998 1.35929 7.77892L1.28345 17.7115L15.0156 17.9053L15.0409 13.4066L15.2346 7.39137C15.2346 7.39137 15.024 4.50174 18.9751 4.08051C18.9751 4.08051 26.9448 2.95161 35.9676 3.16223V2.3282C35.9676 2.3282 35.9845 2.3282 35.9929 2.3282L36.0097 0.921274C32.2271 -0.165501 8.70554 0.491624 7.39973 0.79491H7.39129Z" fill="url(#paint9_linear_417_8761)"/>
<path opacity="0.3" d="M34.8219 0.643066V1.10641C34.8219 1.10641 34.7967 1.10641 34.7883 1.10641V1.94044C25.7655 1.72982 17.7958 2.85872 17.7958 2.85872C13.8446 3.27995 14.0552 6.16961 14.0552 6.16961L13.8615 12.1848L13.8362 16.6835L1.39307 16.5066V17.6608L15.1167 17.8546L15.142 13.3558L15.3358 7.34062C15.3358 7.34062 15.1252 4.45098 19.0763 4.02975C19.0763 4.02975 27.046 2.90086 36.0688 3.11147V2.27744C36.0688 2.27744 36.0856 2.27744 36.0941 2.27744L36.1109 0.870522C35.8076 0.786276 35.3695 0.702039 34.8219 0.643066Z" fill="url(#paint10_linear_417_8761)"/>
<path d="M15.0831 17.9811L1.35099 17.7874C1.35099 17.7874 1.27515 17.7537 1.27515 17.7115L1.35099 7.77894C1.84804 2.81684 3.79411 1.51102 7.44197 0.719106C8.09909 0.567463 14.2154 0.323134 20.8371 0.255737C25.6055 0.205189 33.9206 0.222049 36.0941 0.84547C36.1278 0.853895 36.1531 0.88759 36.1531 0.921289L36.1362 2.32821C36.1362 2.32821 36.1278 2.37031 36.111 2.38716V3.16224C36.111 3.16224 36.1109 3.20436 36.0857 3.21279C36.0688 3.22964 36.052 3.23806 36.0267 3.23806C27.1134 3.02744 19.1269 4.13949 19.0511 4.15634C15.2263 4.56914 15.3695 7.27344 15.3779 7.39139L15.1842 13.415L15.1589 17.9138C15.1589 17.9138 15.1589 17.9559 15.1337 17.9643C15.1168 17.9811 15.1 17.9896 15.0831 17.9896V17.9811ZM1.43522 17.6357L15.0073 17.8211L15.0326 13.3981L15.2263 7.37455C15.2263 7.37455 15.0578 4.40909 19.0343 3.98786C19.1101 3.97944 27.0629 2.86737 35.9593 3.06956V2.31978C35.9593 2.31978 35.9677 2.27765 35.9846 2.2608L36.0014 0.971834C31.9745 -0.114941 8.51189 0.626421 7.48408 0.86231C3.90362 1.63737 1.99969 2.91794 1.51106 7.77894L1.43522 17.6273V17.6357Z" fill="#222C4C"/>
<path d="M9.32575 35.6545C11.8375 35.5949 13.8254 33.5104 13.7658 30.9986C13.7062 28.4868 11.6216 26.4989 9.1098 26.5585C6.598 26.6182 4.61011 28.7027 4.66974 31.2145C4.72937 33.7263 6.81395 35.7142 9.32575 35.6545Z" fill="#AD9C9F"/>
<path opacity="0.4" d="M13.5158 29.4639C13.5747 29.7503 13.6 30.0452 13.6 30.3484C13.6 32.859 11.5613 34.8978 9.05073 34.8978C7.11307 34.8978 5.46181 33.6762 4.80469 31.9744C5.21749 34.0637 7.06252 35.6391 9.26134 35.6391C11.7719 35.6391 13.8106 33.6003 13.8106 31.0898C13.8106 30.5169 13.7011 29.9694 13.5073 29.4723L13.5158 29.4639Z" fill="url(#paint11_linear_417_8761)"/>
<path d="M9.23619 26.5994C11.7046 26.5994 13.7097 28.6045 13.7097 31.0729C13.7097 33.5413 11.7046 35.5464 9.23619 35.5464C6.76778 35.5464 4.76272 33.5413 4.76272 31.0729C4.76272 28.6045 6.76778 26.5994 9.23619 26.5994ZM9.23619 26.4478C6.68353 26.4478 4.61108 28.5202 4.61108 31.0729C4.61108 33.6255 6.68353 35.698 9.23619 35.698C11.7888 35.698 13.8613 33.6255 13.8613 31.0729C13.8613 28.5202 11.7888 26.4478 9.23619 26.4478Z" fill="#222C4C"/>
<path d="M9.3206 32.4884C8.49499 32.4884 7.82104 31.8145 7.82104 30.9888C7.82104 30.1632 8.49499 29.4893 9.3206 29.4893C10.1462 29.4893 10.8202 30.1632 10.8202 30.9888C10.8202 31.8145 10.1462 32.4884 9.3206 32.4884Z" fill="#89797C"/>
<path opacity="0.4" d="M10.5085 30.0791C10.5759 30.2476 10.618 30.4329 10.618 30.6267C10.618 31.4523 9.94399 32.1263 9.11838 32.1263C8.63818 32.1263 8.21698 31.8988 7.93896 31.545C8.158 32.101 8.69715 32.497 9.329 32.497C10.1546 32.497 10.8286 31.823 10.8286 30.9974C10.8286 30.652 10.7022 30.3318 10.5 30.0791H10.5085Z" fill="url(#paint12_linear_417_8761)"/>
<path d="M9.32076 29.5652C10.1042 29.5652 10.7445 30.2055 10.7445 30.989C10.7445 31.7725 10.1042 32.4127 9.32076 32.4127C8.53727 32.4127 7.897 31.7725 7.897 30.989C7.897 30.2055 8.53727 29.5652 9.32076 29.5652ZM9.32076 29.4136C8.45303 29.4136 7.74536 30.1212 7.74536 30.989C7.74536 31.8567 8.45303 32.5644 9.32076 32.5644C10.1885 32.5644 10.8962 31.8567 10.8962 30.989C10.8962 30.1212 10.1885 29.4136 9.32076 29.4136Z" fill="#222C4C"/>
<path d="M9.32021 31.848C8.84843 31.848 8.46094 31.4605 8.46094 30.9887C8.46094 30.5169 8.84843 30.1294 9.32021 30.1294C9.79199 30.1294 10.1795 30.5169 10.1795 30.9887C10.1795 31.4605 9.79199 31.848 9.32021 31.848Z" fill="#F96A49"/>
<path opacity="0.4" d="M10.129 30.6772C10.129 31.149 9.74145 31.5281 9.26967 31.5281C8.89898 31.5281 8.57888 31.2838 8.46094 30.9552C8.46094 30.9552 8.46094 30.9553 8.46094 30.9637C8.46094 31.4355 8.84843 31.823 9.32021 31.823C9.79199 31.823 10.1795 31.4355 10.1795 30.9637C10.1795 30.8626 10.1627 30.7699 10.129 30.6772Z" fill="url(#paint13_linear_417_8761)"/>
<path d="M9.32037 30.2053C9.75003 30.2053 10.1039 30.5592 10.1039 30.9888C10.1039 31.4185 9.75003 31.7723 9.32037 31.7723C8.89072 31.7723 8.53689 31.4185 8.53689 30.9888C8.53689 30.5592 8.89072 30.2053 9.32037 30.2053ZM9.32037 30.0537C8.80647 30.0537 8.38525 30.4749 8.38525 30.9888C8.38525 31.5027 8.80647 31.924 9.32037 31.924C9.83428 31.924 10.2555 31.5027 10.2555 30.9888C10.2555 30.4749 9.83428 30.0537 9.32037 30.0537Z" fill="#222C4C"/>
<path d="M12.6399 27.4925L12.4714 27.265C12.4714 27.265 12.404 27.2061 12.3535 27.2061C12.3113 27.2061 12.2692 27.2229 12.2355 27.2566L11.056 28.6214C10.9971 28.6888 11.0055 28.7815 11.0729 28.8404L11.2835 29.0258C11.2835 29.0258 11.3509 29.0595 11.3846 29.0595C11.3846 29.0595 11.3846 29.0595 11.393 29.0595C11.4352 29.0595 11.4689 29.0342 11.4941 29.0089L12.6315 27.6862C12.682 27.6357 12.682 27.5515 12.6315 27.4925H12.6399Z" fill="#222C4C"/>
<path d="M9.58996 31.4604C9.58996 31.4604 9.55627 31.4604 9.53942 31.4436L8.90757 30.896C8.90757 30.896 8.88232 30.8623 8.88232 30.8454C8.88232 30.8286 8.88229 30.8033 8.89914 30.7865L11.2075 28.1327C11.2075 28.1327 11.2412 28.1074 11.2665 28.1074C11.2833 28.1074 11.3002 28.1074 11.317 28.1243L11.9488 28.6719C11.9488 28.6719 11.9741 28.7056 11.9741 28.7224C11.9741 28.7393 11.9741 28.7646 11.9573 28.7814L9.64894 31.4352C9.64894 31.4352 9.61524 31.4604 9.58996 31.4604Z" fill="#89797C"/>
<path opacity="0.4" d="M11.8566 28.5455L9.69987 31.0224C9.69987 31.0224 9.66617 31.0477 9.6409 31.0477C9.62405 31.0477 9.6072 31.0476 9.59035 31.0308L9.08489 30.5843L8.92482 30.7612C8.92482 30.7612 8.90796 30.7949 8.90796 30.8202C8.90796 30.837 8.91641 30.8623 8.93326 30.8707L9.5651 31.4183C9.5651 31.4183 9.5988 31.4352 9.61565 31.4352C9.64092 31.4352 9.65778 31.4268 9.67463 31.4099L11.983 28.7562C11.983 28.7562 11.9998 28.7225 11.9998 28.6972C11.9998 28.6803 11.9914 28.6551 11.9745 28.6466L11.8481 28.5371L11.8566 28.5455Z" fill="url(#paint14_linear_417_8761)"/>
<path d="M11.2665 28.1751L11.8984 28.7227L9.59002 31.3764L8.95817 30.8288L11.2665 28.1751ZM11.2665 28.0234C11.2244 28.0234 11.1823 28.0403 11.1486 28.074L8.84026 30.7277C8.84026 30.7277 8.79811 30.7951 8.80653 30.8373C8.80653 30.8794 8.8318 30.9131 8.85708 30.9383L9.48892 31.4859C9.48892 31.4859 9.55632 31.5196 9.59002 31.5196C9.63214 31.5196 9.67427 31.5028 9.70797 31.4691L12.0163 28.8154C12.0163 28.8154 12.0585 28.748 12.05 28.7058C12.05 28.6637 12.0248 28.63 11.9995 28.6047L11.3676 28.0571C11.3676 28.0571 11.3002 28.0234 11.2665 28.0234Z" fill="#222C4C"/>
<path d="M11.7048 29.2195C11.7048 29.2195 11.688 29.2195 11.6796 29.2195L10.6012 28.773C10.6012 28.773 10.5591 28.7477 10.5591 28.7225C10.5591 28.6972 10.5591 28.6719 10.5759 28.6551L10.6854 28.5287C10.6854 28.5287 10.7191 28.5034 10.7444 28.5034C10.7528 28.5034 10.7613 28.5034 10.7697 28.5034L11.848 28.9499C11.848 28.9499 11.8902 28.9752 11.8902 29.0005C11.8902 29.0258 11.8902 29.051 11.8733 29.0679L11.7638 29.1942C11.7638 29.1942 11.7301 29.2195 11.7048 29.2195Z" fill="#222C4C"/>
<path d="M10.7362 28.5794L11.8145 29.0259L11.705 29.1523L10.6267 28.7058L10.7362 28.5794ZM10.7362 28.4277C10.6941 28.4277 10.6519 28.4446 10.6182 28.4783L10.5087 28.6047C10.5087 28.6047 10.4666 28.6889 10.475 28.7394C10.4834 28.79 10.5172 28.8237 10.5677 28.849L11.646 29.2955C11.646 29.2955 11.6882 29.3039 11.705 29.3039C11.7471 29.3039 11.7893 29.2871 11.823 29.2534L11.9325 29.127C11.9325 29.127 11.9746 29.0427 11.9662 28.9922C11.9577 28.9416 11.9241 28.9079 11.8735 28.8827L10.7951 28.4362C10.7951 28.4362 10.7531 28.4277 10.7362 28.4277Z" fill="#222C4C"/>
<path d="M11.1655 29.8176C11.1655 29.8176 11.1487 29.8176 11.1403 29.8176L10.0619 29.3711C10.0619 29.3711 10.0198 29.3459 10.0198 29.3206C10.0198 29.2953 10.0198 29.27 10.0366 29.2532L10.1462 29.1268C10.1462 29.1268 10.1799 29.1016 10.2051 29.1016C10.2136 29.1016 10.222 29.1016 10.2304 29.1016L11.3088 29.5481C11.3088 29.5481 11.3509 29.5733 11.3509 29.5986C11.3509 29.6239 11.3509 29.6491 11.334 29.666L11.2245 29.7924C11.2245 29.7924 11.1908 29.8176 11.1655 29.8176Z" fill="#222C4C"/>
<path d="M10.1968 29.1692L11.2752 29.6157L11.1656 29.7421L10.0873 29.2956L10.1968 29.1692ZM10.1968 29.0176C10.1547 29.0176 10.1126 29.0344 10.0789 29.0681L9.96936 29.1945C9.96936 29.1945 9.92726 29.2787 9.93568 29.3293C9.94411 29.3798 9.9778 29.4135 10.0283 29.4388L11.1067 29.8853C11.1067 29.8853 11.1488 29.8937 11.1656 29.8937C11.2078 29.8937 11.2499 29.8769 11.2836 29.8432L11.3931 29.7168C11.3931 29.7168 11.4352 29.6326 11.4268 29.582C11.4184 29.5315 11.3847 29.4978 11.3341 29.4725L10.2558 29.026C10.2558 29.026 10.2137 29.0176 10.1968 29.0176Z" fill="#222C4C"/>
<path d="M10.6347 30.4075C10.6347 30.4075 10.6179 30.4075 10.6095 30.4075L9.53113 29.961C9.53113 29.961 9.48901 29.9357 9.48901 29.9105C9.48901 29.8852 9.48903 29.8599 9.50588 29.8431L9.6154 29.7167C9.6154 29.7167 9.64911 29.6914 9.67438 29.6914C9.68281 29.6914 9.6912 29.6914 9.69963 29.6914L10.778 30.1379C10.778 30.1379 10.8201 30.1632 10.8201 30.1885C10.8201 30.2137 10.8201 30.239 10.8033 30.2559L10.6937 30.3822C10.6937 30.3822 10.66 30.4075 10.6347 30.4075Z" fill="#222C4C"/>
<path d="M9.66584 29.7674L10.7442 30.2139L10.6346 30.3403L9.55632 29.8937L9.66584 29.7674ZM9.66584 29.6157C9.62372 29.6157 9.58158 29.6326 9.54788 29.6663L9.43836 29.7926C9.43836 29.7926 9.39625 29.8769 9.40468 29.9274C9.4131 29.978 9.44679 30.0117 9.49734 30.037L10.5757 30.4835C10.5757 30.4835 10.6178 30.4919 10.6346 30.4919C10.6768 30.4919 10.7189 30.475 10.7526 30.4413L10.8621 30.315C10.8621 30.315 10.9042 30.2307 10.8958 30.1802C10.8874 30.1296 10.8537 30.0959 10.8031 30.0707L9.72482 29.6242C9.72482 29.6242 9.68269 29.6157 9.66584 29.6157Z" fill="#222C4C"/>
<path d="M10.0955 31.0056C10.0955 31.0056 10.0786 31.0056 10.0702 31.0056L8.99187 30.5591C8.99187 30.5591 8.94971 30.5338 8.94971 30.5086C8.94971 30.4833 8.94972 30.458 8.96657 30.4412L9.0761 30.3148C9.0761 30.3148 9.1098 30.2896 9.13508 30.2896C9.1435 30.2896 9.1519 30.2896 9.16032 30.2896L10.2387 30.7361C10.2387 30.7361 10.2808 30.7613 10.2808 30.7866C10.2808 30.8119 10.2808 30.8371 10.2639 30.854L10.1545 30.9803C10.1545 30.9803 10.1208 31.0056 10.0955 31.0056Z" fill="#222C4C"/>
<path d="M9.12678 30.3567L10.2052 30.8032L10.0956 30.9296L9.01725 30.4831L9.12678 30.3567ZM9.12678 30.2051C9.08465 30.2051 9.04252 30.2219 9.00882 30.2556L8.8993 30.382C8.8993 30.382 8.85719 30.4662 8.86562 30.5168C8.87404 30.5673 8.90773 30.601 8.95827 30.6263L10.0367 31.0728C10.0367 31.0728 10.0788 31.0812 10.0956 31.0812C10.1378 31.0812 10.1798 31.0644 10.2135 31.0307L10.3231 30.9043C10.3231 30.9043 10.3652 30.8201 10.3568 30.7695C10.3484 30.719 10.3146 30.6853 10.2641 30.66L9.18576 30.2135C9.18576 30.2135 9.14363 30.2051 9.12678 30.2051Z" fill="#222C4C"/>
<path d="M46.1276 19.4468C46.2624 20.6684 46.4814 22.4291 46.9364 23.0862C47.6946 22.446 48.4359 21.8647 49.1773 21.6541C49.0341 21.7383 48.9161 22.4797 48.9161 23.3811C48.9161 23.7434 48.933 24.0804 48.9667 24.3668C48.6465 24.2826 48.2927 24.2404 47.9305 24.2404C46.9532 24.2404 45.8749 24.5521 44.9903 25.1503C45.5969 23.5243 46.1192 21.9826 46.0939 19.9354C46.1107 19.7754 46.1192 19.6153 46.1276 19.4468ZM46.1276 19.2867C46.0518 19.2867 45.9844 19.3541 45.9759 19.43C45.9759 19.59 45.9591 19.7501 45.9423 19.9102C45.9423 19.9102 45.9423 19.9186 45.9423 19.927C45.9675 21.9152 45.4621 23.4401 44.8471 25.0829C44.8218 25.1418 44.8471 25.2177 44.8976 25.2598C44.9229 25.2851 44.9566 25.2935 44.9903 25.2935C45.024 25.2935 45.0492 25.2851 45.0745 25.2682C45.9085 24.7038 46.9448 24.3836 47.9305 24.3836C48.2843 24.3836 48.6213 24.4258 48.933 24.51C48.9498 24.51 48.9583 24.51 48.9751 24.51C49.0088 24.51 49.0509 24.4931 49.0762 24.4763C49.1183 24.4426 49.1352 24.392 49.1267 24.3415C49.093 24.0551 49.0762 23.7265 49.0762 23.3727C49.0762 22.4123 49.2026 21.8647 49.27 21.772C49.3121 21.7467 49.3374 21.6962 49.3374 21.6456C49.3374 21.5614 49.27 21.494 49.1857 21.494C49.1857 21.494 49.1773 21.494 49.1689 21.494C49.1605 21.494 49.152 21.494 49.1436 21.494C48.3938 21.713 47.644 22.2859 46.9869 22.8419C46.5825 22.0669 46.3887 20.2977 46.2877 19.4131C46.2792 19.3373 46.2118 19.2783 46.136 19.2783L46.1276 19.2867Z" fill="#222C4C"/>
<path d="M49.4216 24.5862C49.4216 24.5862 49.4048 24.5862 49.3963 24.5862C49.3037 24.5525 49.211 24.5272 49.1184 24.502C49.0594 24.4851 49.0088 24.4683 48.9499 24.4514C48.9162 24.4514 48.8993 24.4177 48.8909 24.384C48.8572 24.0892 48.8403 23.7522 48.8403 23.3899C48.8403 23.2046 48.8488 21.5786 49.2026 21.5786C49.5564 21.5786 49.5648 23.2046 49.5648 23.3899C49.5648 23.8027 49.5395 24.2071 49.4974 24.5188C49.4974 24.5441 49.4806 24.5609 49.4637 24.5694C49.4553 24.5694 49.4385 24.5778 49.4216 24.5778V24.5862Z" fill="#FDD363"/>
<path opacity="0.3" d="M49.2028 21.5786C49.2028 21.5786 49.1776 21.5786 49.1607 21.587C49.3292 22.0336 49.3376 23.0361 49.3376 23.1793C49.3376 23.5921 49.3124 23.9965 49.2702 24.3082C49.2702 24.3335 49.2533 24.3503 49.2365 24.3588C49.2281 24.3588 49.2112 24.3672 49.1944 24.3672C49.1944 24.3672 49.1776 24.3672 49.1691 24.3672C49.0765 24.3335 48.9838 24.3082 48.8911 24.2829C48.8911 24.3166 48.8911 24.3419 48.8995 24.3756C48.8995 24.4093 48.9248 24.4346 48.9585 24.443C49.0175 24.4599 49.068 24.4767 49.127 24.4935C49.2196 24.5188 49.3123 24.5525 49.405 24.5778C49.405 24.5778 49.4219 24.5778 49.4303 24.5778C49.4472 24.5778 49.4556 24.5778 49.4724 24.5694C49.4893 24.5609 49.5061 24.5357 49.5061 24.5188C49.5482 24.2071 49.5735 23.8027 49.5735 23.3899C49.5735 23.2046 49.5651 21.5786 49.2113 21.5786H49.2028Z" fill="url(#paint15_linear_417_8761)"/>
<path d="M49.2027 21.6542C49.3628 21.6542 49.4892 22.4293 49.4892 23.3897C49.4892 23.8193 49.4639 24.2069 49.4218 24.5101C49.3291 24.4764 49.2364 24.4512 49.1353 24.4175C49.0764 24.4006 49.0258 24.3838 48.9668 24.3669C48.9331 24.0889 48.9163 23.7519 48.9163 23.3812C48.9163 22.4208 49.0427 21.6458 49.2027 21.6458V21.6542ZM49.2027 21.5025C48.8236 21.5025 48.7646 22.682 48.7646 23.3897C48.7646 23.7519 48.7815 24.0973 48.8152 24.3922C48.8152 24.4512 48.8657 24.5102 48.9247 24.5186C48.9837 24.5354 49.0342 24.5523 49.0848 24.5691C49.1859 24.5944 49.2786 24.6281 49.3628 24.6618C49.3797 24.6618 49.3965 24.6618 49.4134 24.6618C49.4386 24.6618 49.4723 24.6618 49.4976 24.6365C49.5397 24.6112 49.565 24.5691 49.565 24.527C49.6071 24.2068 49.6324 23.8025 49.6324 23.3812C49.6324 22.6736 49.5734 21.4941 49.1943 21.4941L49.2027 21.5025Z" fill="#222C4C"/>
<path d="M31.1067 21.1992H26.6669C26.625 21.1992 26.5911 21.2332 26.5911 21.275V29.1015C26.5911 29.1434 26.625 29.1773 26.6669 29.1773H31.1067C31.1486 29.1773 31.1825 29.1434 31.1825 29.1015V21.275C31.1825 21.2332 31.1486 21.1992 31.1067 21.1992Z" fill="#AD9C9F"/>
<path opacity="0.3" d="M31.1317 20.5928H30.3651V27.5262C30.3651 27.5262 30.3313 27.6021 30.2892 27.6021H26.6077V28.4951C26.6077 28.4951 26.6414 28.5709 26.6835 28.5709H31.1232C31.1654 28.5709 31.1991 28.5372 31.1991 28.4951V20.6686C31.1991 20.6686 31.1654 20.5928 31.1232 20.5928H31.1317Z" fill="url(#paint16_linear_417_8761)"/>
<path d="M31.1068 21.2752V29.1016H26.667V21.2752H31.1068ZM31.1068 21.1235H26.667C26.5828 21.1235 26.5154 21.1909 26.5154 21.2752V29.1016C26.5154 29.1859 26.5828 29.2533 26.667 29.2533H31.1068C31.1911 29.2533 31.2584 29.1859 31.2584 29.1016V21.2752C31.2584 21.1909 31.1911 21.1235 31.1068 21.1235Z" fill="#222C4C"/>
<path d="M26.6332 21.6625C26.5911 21.6625 26.5574 21.6288 26.5574 21.5867V20.483C26.5574 20.483 26.5911 20.4072 26.6332 20.4072H31.5195C31.7638 20.4072 31.966 20.6094 31.966 20.8537V21.216C31.966 21.4603 31.7638 21.6625 31.5195 21.6625H26.6332Z" fill="#89797C"/>
<path opacity="0.3" d="M31.5787 20.416C31.5787 20.416 31.5787 20.4497 31.5787 20.475V20.8372C31.5787 21.0816 31.3765 21.2838 31.1322 21.2838H26.5239V21.587C26.5239 21.587 26.5576 21.6628 26.5997 21.6628H31.486C31.7303 21.6628 31.9325 21.4607 31.9325 21.2163V20.8541C31.9325 20.635 31.7725 20.4581 31.5703 20.416H31.5787Z" fill="url(#paint17_linear_417_8761)"/>
<path d="M31.5192 20.4832C31.7213 20.4832 31.8898 20.6517 31.8898 20.8539V21.2161C31.8898 21.4183 31.7213 21.5868 31.5192 21.5868H26.6329V20.4832H31.5192ZM31.5192 20.3315H26.6329C26.5486 20.3315 26.4812 20.3989 26.4812 20.4832V21.5868C26.4812 21.671 26.5486 21.7384 26.6329 21.7384H31.5192C31.8056 21.7384 32.0415 21.5026 32.0415 21.2161V20.8539C32.0415 20.5674 31.8056 20.3315 31.5192 20.3315Z" fill="#222C4C"/>
<path d="M19.6323 20.4832C19.8176 20.4832 19.9692 20.6348 19.9692 20.8202V21.1487C19.9692 21.3341 19.8176 21.4857 19.6323 21.4857H17.4756C17.4166 21.1572 17.366 20.8202 17.3239 20.4832H19.6323ZM19.6323 20.3315H17.3239C17.2818 20.3315 17.2397 20.3484 17.206 20.3821C17.1807 20.4158 17.1638 20.4579 17.1638 20.5C17.2059 20.8454 17.2565 21.1909 17.3155 21.5194C17.3324 21.5952 17.3913 21.6458 17.4671 21.6458H19.6238C19.8934 21.6458 20.1124 21.4267 20.1124 21.1571V20.8286C20.1124 20.559 19.8934 20.34 19.6238 20.34L19.6323 20.3315Z" fill="#222C4C"/>
<path d="M4.10581 29.9777C2.31136 29.3374 1.51106 27.9642 1.40154 25.4032L1.27515 17.7199C1.27515 17.7199 1.27517 17.6778 1.30045 17.6609C1.31729 17.6441 1.33414 17.6357 1.35099 17.6357L17.1808 17.8294C17.1977 17.8294 17.223 17.8379 17.2398 17.8547C17.2567 17.8716 17.2651 17.8884 17.2567 17.9137C17.2145 18.655 17.2314 19.388 17.2819 20.0957V23.0106C17.2819 25.2431 19.1016 27.0544 21.3342 27.0544H21.8312C24.0638 27.0544 25.875 25.2347 25.875 23.0106V21.6458C25.9256 21.0139 25.9256 20.3568 25.875 19.6154V17.8715C25.875 17.8715 25.9088 17.762 25.9509 17.762H26.6501C26.6922 17.762 26.7259 17.7957 26.7259 17.8379V28.6045L36.3216 28.495L36.2373 16.8269C36.2373 16.8269 36.2373 16.7848 36.2626 16.7679C36.2795 16.7511 36.2963 16.7426 36.3131 16.7426C36.608 16.7511 36.9029 16.7595 37.2062 16.7595C39.9694 16.7595 43.255 16.3298 45.1927 15.7148C45.1927 15.7148 45.2095 15.7148 45.218 15.7148C45.2432 15.7148 45.2685 15.7317 45.2853 15.7485C46.1446 17.1302 46.1952 18.7983 46.0773 19.9524C46.1025 21.8901 45.6308 23.3813 45.0495 24.9651C45.8835 24.4596 46.886 24.1647 47.838 24.1647C48.2845 24.1647 48.6973 24.2237 49.0764 24.3501C51.2247 24.9819 51.9576 26.2035 52.202 27.1133C52.3283 27.4756 52.3368 27.821 52.2188 28.0316C52.1514 28.1411 52.0587 28.2086 51.9324 28.2338C51.9324 28.2338 51.9239 28.2338 51.9155 28.2338C51.8902 28.2338 51.865 28.217 51.8481 28.1917C50.9383 26.591 49.2449 25.6053 47.4168 25.6053C45.0326 25.6053 42.9939 27.2229 42.4547 29.5481L42.303 29.8513C42.303 29.8513 42.2609 29.8935 42.2356 29.8935H14.1985C14.1985 29.8935 14.1227 29.8682 14.1227 29.8261C13.9626 28.2844 11.7807 27.0712 9.15219 27.0712C6.52371 27.0712 4.26589 28.3433 4.17322 29.9019C4.17322 29.944 4.13955 29.9777 4.09742 29.9777H4.10581Z" fill="#5EBDB7"/>
<path d="M45.3103 15.7823C46.0685 16.9954 46.2285 18.5203 46.0938 19.9356C46.119 21.9828 45.5967 23.5245 44.9901 25.1504C45.8747 24.5523 46.9446 24.2406 47.9303 24.2406C48.36 24.2406 48.7728 24.2995 49.1435 24.4259C51.0137 24.9735 51.9236 26.0266 52.2185 27.1386C52.387 27.6188 52.3533 28.0991 52.0079 28.158C51.1148 26.5911 49.4383 25.5295 47.5091 25.5295C45.0575 25.5295 43.0019 27.2397 42.4712 29.5312C42.4206 29.6239 42.3701 29.725 42.3195 29.8177H14.2824C14.1223 28.2423 11.9235 26.9954 9.23605 26.9954C6.5486 26.9954 4.27396 28.2844 4.18128 29.9019C2.2689 29.2111 1.64548 27.6862 1.55281 25.4032C1.51069 22.8421 1.46854 20.281 1.42642 17.7199C6.70023 17.7873 11.9825 17.8463 17.2563 17.9137C17.2142 18.6719 17.231 19.4048 17.2816 20.1041V23.0106C17.2816 25.2768 19.135 27.1386 21.4096 27.1386H21.9067C24.1729 27.1386 26.0347 25.2852 26.0347 23.0106V21.6458C26.0937 20.9718 26.0769 20.281 26.0347 19.607V17.8632C26.0347 17.8632 26.0347 17.8463 26.0347 17.8294H26.734V28.6719C29.9859 28.6382 33.2378 28.5961 36.4813 28.5624L36.397 16.8185C36.6919 16.8269 36.9952 16.8353 37.2985 16.8353C40.1965 16.8353 43.4232 16.3888 45.3103 15.7907V15.7823ZM45.3103 15.6306C45.3103 15.6306 45.2766 15.6306 45.2682 15.6306C43.3389 16.2456 40.0617 16.6753 37.3069 16.6753C37.0036 16.6753 36.7003 16.6753 36.4139 16.6584C36.3718 16.6584 36.3381 16.6753 36.3044 16.7006C36.2707 16.7258 36.2538 16.768 36.2622 16.8101L36.3465 28.4023L26.9025 28.5119V17.8294C26.9025 17.7452 26.8351 17.6778 26.7508 17.6778H26.0516C26.0516 17.6778 25.9758 17.6946 25.9421 17.7199C25.9168 17.7452 25.9 17.7873 25.9 17.8294V17.8547V19.5986C25.9505 20.3484 25.9505 21.0055 25.9 21.629V23.0021C25.9 25.1925 24.1139 26.9702 21.932 26.9702H21.4349C19.2445 26.9702 17.4669 25.1925 17.4669 23.0021V20.0957C17.4079 19.3796 17.3995 18.6551 17.4416 17.9137C17.4416 17.8716 17.4248 17.8294 17.3995 17.8042C17.3742 17.7705 17.3321 17.7536 17.29 17.7536L9.58987 17.6609L1.46858 17.5599C1.42646 17.5599 1.39276 17.5767 1.35906 17.602C1.33378 17.6272 1.31689 17.6694 1.31689 17.7115L1.38431 21.7216L1.44328 25.3947C1.5528 27.9979 2.36156 29.3796 4.17285 30.0367C4.1897 30.0367 4.20655 30.0451 4.2234 30.0451C4.29922 30.0451 4.37503 29.9777 4.37503 29.9019C4.45928 28.3771 6.6581 27.1386 9.26973 27.1386C11.8814 27.1386 14.0128 28.3181 14.1644 29.8261C14.1644 29.9019 14.2403 29.9609 14.3161 29.9609H14.3919H42.3617C42.4206 29.9609 42.4712 29.9272 42.4964 29.8766L42.6397 29.5986C42.6397 29.5986 42.6565 29.5649 42.6565 29.5565C43.1872 27.2734 45.1923 25.6728 47.5428 25.6728C49.3456 25.6728 51.0222 26.65 51.9068 28.2254C51.932 28.276 51.9826 28.3012 52.0415 28.3012C52.05 28.3012 52.0584 28.3012 52.0668 28.3012C52.21 28.276 52.328 28.1917 52.4038 28.0569C52.5386 27.8295 52.5301 27.4588 52.3869 27.0713C52.151 26.153 51.4013 24.9061 49.2109 24.2658C48.8318 24.1395 48.4105 24.0805 47.9556 24.0805C47.0626 24.0805 46.119 24.3333 45.3103 24.7798C45.8579 23.2633 46.2875 21.8059 46.2707 19.9356C46.3802 18.7646 46.3296 17.0881 45.4619 15.6896C45.4366 15.6475 45.3861 15.6138 45.3355 15.6138L45.3103 15.6306Z" fill="#222C4C"/>
<path d="M35.9679 15.2515C35.9679 15.2515 35.9258 15.2515 35.9173 15.2262C35.9005 15.2094 35.8921 15.1925 35.8921 15.1757L36.0858 0.676893C36.0858 0.676893 36.0942 0.626365 36.1195 0.61794C36.1364 0.609515 36.1448 0.601074 36.1617 0.601074C36.1617 0.601074 36.1785 0.601074 36.1869 0.601074C38.0572 1.2245 39.8601 2.64826 41.2586 4.6112C42.8424 6.8353 45.4793 11.0223 45.3614 14.1142C45.3614 14.1479 45.3361 14.1731 45.3108 14.1816C42.4296 15.0661 39.7 15.2515 36.4986 15.2515H35.9763H35.9679Z" fill="#037874"/>
<path opacity="0.3" d="M41.174 4.48513C40.2894 3.24671 39.2447 2.21891 38.1243 1.47754C39.0425 2.17678 39.8935 3.06136 40.6348 4.10602C42.2187 6.33011 44.8556 10.5171 44.7376 13.609C44.7376 13.6427 44.7123 13.668 44.6871 13.6764C41.8058 14.561 39.0763 14.7463 35.8749 14.7463H35.8159V15.0496C35.8159 15.0664 35.8159 15.0917 35.8412 15.1002C35.8581 15.117 35.8749 15.1254 35.8918 15.1254H36.4141C39.6239 15.1254 42.345 14.9485 45.2262 14.0639C45.2599 14.0555 45.2768 14.0302 45.2768 13.9965C45.3947 10.9047 42.7578 6.70923 41.174 4.48513Z" fill="url(#paint18_linear_417_8761)"/>
<path d="M36.1612 0.677028C37.8377 1.23305 39.6743 2.53044 41.1907 4.65345C43.3895 7.73686 45.3862 11.4268 45.2851 14.1143C42.2438 15.0494 39.3457 15.1758 36.4898 15.1758C36.3128 15.1758 36.1444 15.1758 35.9674 15.1758C36.0348 10.3401 36.0938 5.50433 36.1612 0.677028ZM36.1612 0.525391C36.1612 0.525391 36.1022 0.533814 36.0685 0.550663C36.0264 0.575937 36.0012 0.62648 36.0012 0.677028V0.84553L35.8074 15.1758C35.8074 15.2179 35.8243 15.26 35.8495 15.2853C35.8748 15.3106 35.9169 15.3274 35.959 15.3274C36.1359 15.3274 36.3045 15.3274 36.4814 15.3274C39.6912 15.3274 42.4292 15.1421 45.3188 14.2575C45.3778 14.2407 45.4283 14.1817 45.4283 14.1143C45.5463 10.9972 42.9009 6.79331 41.3087 4.56079C39.9018 2.581 38.082 1.14881 36.2034 0.525391C36.1865 0.525391 36.1697 0.525391 36.1528 0.525391H36.1612Z" fill="#222C4C"/>
<path d="M39.6156 14.5946C38.9585 14.5946 38.3603 14.5441 37.7201 14.4935C37.3831 14.4683 37.0461 14.443 36.6923 14.4177C36.6502 14.4177 36.6165 14.384 36.6165 14.3419C36.6502 12.0167 36.6501 10.1633 36.6586 8.36882C36.6586 6.57438 36.667 4.72096 36.7007 2.38734C36.7007 2.36207 36.7091 2.33681 36.7344 2.32839C36.7513 2.31996 36.7597 2.31152 36.7765 2.31152C36.7765 2.31152 36.7933 2.31152 36.8018 2.31152C38.4193 2.8507 39.3376 3.41516 40.8288 5.50446C41.865 6.96192 42.5558 8.35198 43.2298 9.6915C43.5162 10.2728 43.7942 10.8288 44.0891 11.3596C44.4176 11.9156 44.5272 12.4716 44.3924 12.9434C44.2828 13.3478 43.988 13.7016 43.5752 13.9206C42.1683 14.384 40.9467 14.5946 39.624 14.5946H39.6156Z" fill="url(#paint19_linear_417_8761)"/>
<path opacity="0.3" d="M44.0805 11.3088C43.7857 10.7781 43.5161 10.2305 43.2212 9.64074C42.5557 8.30122 41.8564 6.91116 40.8202 5.4537C39.6997 3.88672 38.9078 3.17906 37.8884 2.69043C38.5708 3.16221 39.2111 3.85304 40.0283 4.99036C41.0645 6.44782 41.7554 7.83785 42.4293 9.17737C42.7242 9.75867 42.9937 10.3147 43.2886 10.8455C43.6172 11.4015 43.7267 11.9575 43.5919 12.4293C43.4824 12.8337 43.1875 13.1875 42.7747 13.4065C41.3678 13.8699 40.1462 14.0805 38.8236 14.0805C38.1664 14.0805 37.5683 14.03 36.928 13.9794C36.8269 13.9794 36.7259 13.9626 36.6248 13.9541C36.6248 14.0637 36.6248 14.1732 36.6248 14.2827C36.6248 14.3248 36.6584 14.3585 36.7005 14.3585C37.0544 14.3754 37.3914 14.4006 37.7284 14.4343C38.3686 14.4849 38.9668 14.5354 39.6239 14.5354C40.955 14.5354 42.1682 14.3333 43.5751 13.8615C43.9879 13.6424 44.2743 13.297 44.3922 12.8842C44.527 12.4124 44.4175 11.8648 44.089 11.3004L44.0805 11.3088Z" fill="url(#paint20_linear_417_8761)"/>
<path d="M36.7763 2.39578C38.3938 2.93495 39.3036 3.50783 40.7611 5.55501C42.2523 7.64431 43.0611 9.66622 44.013 11.4017C44.7039 12.5727 44.2826 13.4489 43.5328 13.8533C41.9574 14.3756 40.7274 14.5188 39.6154 14.5188C38.6128 14.5188 37.6945 14.4009 36.7004 14.3503C36.7594 9.6915 36.7173 7.05459 36.7847 2.39578H36.7763ZM36.7763 2.24414C36.7763 2.24414 36.7173 2.25256 36.6836 2.26941C36.6415 2.29469 36.6162 2.34523 36.6162 2.39578C36.5825 4.7294 36.5825 6.58282 36.5741 8.37726C36.5741 10.1717 36.5657 12.0251 36.532 14.3503C36.532 14.4346 36.5909 14.5019 36.6752 14.5019C37.0206 14.5188 37.366 14.5525 37.703 14.5778C38.3432 14.6283 38.9498 14.6789 39.6069 14.6789C40.9465 14.6789 42.168 14.4683 43.5749 14.0049C43.5834 14.0049 43.5918 14.0049 43.6002 13.9965C44.0299 13.7606 44.3331 13.3983 44.4511 12.9771C44.5859 12.48 44.4848 11.9156 44.1394 11.3343C43.8529 10.812 43.5749 10.256 43.2885 9.67466C42.6482 8.39412 41.9237 6.93665 40.8875 5.47919C39.3879 3.37304 38.4612 2.80858 36.8268 2.26098C36.81 2.26098 36.7931 2.26098 36.7763 2.26098V2.24414Z" fill="#222C4C"/>
<path d="M40.9803 19.0091C40.5759 19.0091 40.1378 18.9669 39.6829 18.8827C39.6492 18.8827 39.6239 18.849 39.6239 18.8069L39.5986 17.678C39.5986 17.678 39.5987 17.6359 39.6239 17.619C39.6408 17.6022 39.6576 17.6021 39.6745 17.6021C39.9272 17.619 40.18 17.6274 40.4243 17.6274C41.4605 17.6274 42.4293 17.4505 43.2971 17.0967C43.3055 17.0967 43.3139 17.0967 43.3224 17.0967C43.3392 17.0967 43.3476 17.0967 43.3645 17.1051C43.3813 17.1219 43.3981 17.1388 43.3981 17.1641L43.4656 18.2846C43.4656 18.2846 43.4571 18.3351 43.4319 18.3519C42.7495 18.7816 41.9238 19.0006 40.9718 19.0006L40.9803 19.0091Z" fill="#FDD363"/>
<path opacity="0.3" d="M43.3984 17.1724C43.3984 17.1724 43.3815 17.1218 43.3647 17.1134C43.3563 17.1134 43.3394 17.105 43.3226 17.105C43.3141 17.105 43.3057 17.105 43.2973 17.105C43.1878 17.1471 43.0782 17.1808 42.9687 17.2145L43.0192 17.9811C43.0192 17.9811 43.0108 18.0317 42.9856 18.0486C42.3032 18.4782 41.4776 18.6972 40.5256 18.6972C40.2392 18.6972 39.9274 18.672 39.6157 18.6298V18.8068C39.6157 18.8068 39.6494 18.8742 39.6831 18.8826C40.1381 18.9668 40.5761 19.009 40.9805 19.009C41.9241 19.009 42.7581 18.7899 43.4405 18.3603C43.4658 18.3434 43.4742 18.3181 43.4742 18.2929L43.4068 17.1724H43.3984Z" fill="url(#paint21_linear_417_8761)"/>
<path d="M43.3223 17.1726C43.3476 17.5433 43.3729 17.914 43.3897 18.2931C42.6146 18.7817 41.7553 18.9334 40.9718 18.9334C40.5001 18.9334 40.062 18.8828 39.6829 18.8154C39.6745 18.4363 39.666 18.0572 39.6576 17.6865C39.9103 17.7034 40.1631 17.7202 40.4158 17.7202C41.4268 17.7202 42.3956 17.5602 43.3223 17.1895V17.1726ZM43.3223 17.021C43.3223 17.021 43.2802 17.021 43.2634 17.0294C42.4041 17.3748 41.4436 17.5517 40.4158 17.5517C40.1715 17.5517 39.9272 17.5433 39.6745 17.5265C39.6745 17.5265 39.6745 17.5265 39.666 17.5265C39.6239 17.5265 39.5902 17.5433 39.5649 17.5686C39.5313 17.6023 39.5144 17.636 39.5144 17.6865L39.5313 18.251L39.5481 18.8239C39.5481 18.8997 39.5987 18.9587 39.6745 18.9671C40.1294 19.0513 40.5759 19.0934 40.9887 19.0934C41.9491 19.0934 42.7916 18.8744 43.4824 18.4279C43.533 18.3942 43.5582 18.3436 43.5498 18.2931L43.5245 17.9477L43.474 17.1726C43.474 17.1221 43.4487 17.0799 43.4066 17.0547C43.3813 17.0378 43.356 17.0294 43.3223 17.0294V17.021Z" fill="#222C4C"/>
<path d="M15.7654 19.2617H2.43761C2.39573 19.2617 2.36182 19.2957 2.36182 19.3376V19.7841C2.36182 19.8259 2.39573 19.8599 2.43761 19.8599H15.7654C15.8072 19.8599 15.8412 19.8259 15.8412 19.7841V19.3376C15.8412 19.2957 15.8072 19.2617 15.7654 19.2617Z" fill="#037874"/>
<path opacity="0.3" d="M15.7148 19.2363H15.6137V19.5312C15.6137 19.5312 15.58 19.607 15.5379 19.607H2.31128V19.7587C2.31128 19.7587 2.34495 19.8345 2.38707 19.8345H15.7148C15.7569 19.8345 15.7907 19.8008 15.7907 19.7587V19.3122C15.7907 19.3122 15.7569 19.2363 15.7148 19.2363Z" fill="url(#paint22_linear_417_8761)"/>
<path d="M15.7654 20.542H2.43761C2.39573 20.542 2.36182 20.5759 2.36182 20.6178V21.0643C2.36182 21.1062 2.39573 21.1401 2.43761 21.1401H15.7654C15.8072 21.1401 15.8412 21.1062 15.8412 21.0643V20.6178C15.8412 20.5759 15.8072 20.542 15.7654 20.542Z" fill="#037874"/>
<path d="M15.7654 21.8311H2.43761C2.39573 21.8311 2.36182 21.865 2.36182 21.9069V22.3534C2.36182 22.3953 2.39573 22.4292 2.43761 22.4292H15.7654C15.8072 22.4292 15.8412 22.3953 15.8412 22.3534V21.9069C15.8412 21.865 15.8072 21.8311 15.7654 21.8311Z" fill="#037874"/>
<path d="M15.7654 23.1118H2.43761C2.39573 23.1118 2.36182 23.1458 2.36182 23.1876V23.6341C2.36182 23.676 2.39573 23.71 2.43761 23.71H15.7654C15.8072 23.71 15.8412 23.676 15.8412 23.6341V23.1876C15.8412 23.1458 15.8072 23.1118 15.7654 23.1118Z" fill="#037874"/>
<path d="M15.7654 24.4004H2.43761C2.39573 24.4004 2.36182 24.4343 2.36182 24.4762V24.9227C2.36182 24.9646 2.39573 24.9986 2.43761 24.9986H15.7654C15.8072 24.9986 15.8412 24.9646 15.8412 24.9227V24.4762C15.8412 24.4343 15.8072 24.4004 15.7654 24.4004Z" fill="#037874"/>
<path d="M37.2986 16.9027C36.8353 16.9027 36.3803 16.8943 35.9591 16.869C35.917 16.869 35.8833 16.8353 35.8833 16.7932V15.1757C35.8833 15.1757 35.9001 15.1335 35.9085 15.1251C35.9254 15.1083 35.9422 15.0998 35.9591 15.0998H36.473C39.6575 15.0998 42.3534 14.9229 45.2094 14.0552C45.2599 14.0552 45.2852 14.0552 45.302 14.0552C45.4452 14.0552 45.4537 14.1478 45.4537 14.2068C45.4789 14.5691 45.4958 14.9061 45.5042 15.2346C45.5042 15.4031 45.5126 15.5716 45.5211 15.7317C45.5211 15.7654 45.5042 15.7991 45.4705 15.8075C43.5329 16.4562 40.163 16.9111 37.2818 16.9111L37.2986 16.9027Z" fill="#F96A49"/>
<path opacity="0.3" d="M45.5214 15.2766C45.513 14.948 45.5046 14.6111 45.4709 14.2488C45.4709 14.1898 45.4625 14.0972 45.3192 14.0972C45.3024 14.0972 45.2687 14.0972 45.2265 14.0972C45.1844 14.1056 45.1507 14.114 45.1086 14.1308C45.1255 14.392 45.1339 14.6448 45.1423 14.8891C45.1423 15.0576 45.1507 15.2261 45.1592 15.3861C45.1592 15.4198 45.1423 15.4535 45.1086 15.462C43.171 16.1106 39.8011 16.5656 36.9199 16.5656C36.566 16.5656 36.2206 16.5572 35.8921 16.5403V16.8352C35.8921 16.8352 35.9258 16.911 35.9594 16.911C36.3891 16.9363 36.8356 16.9447 37.299 16.9447C40.1802 16.9447 43.5417 16.4897 45.4877 15.841C45.5214 15.8326 45.5383 15.7989 45.5383 15.7652C45.5383 15.5967 45.5298 15.4367 45.5214 15.2682V15.2766Z" fill="url(#paint23_linear_417_8761)"/>
<path d="M45.3189 14.1225C45.4032 14.1225 45.3947 14.1477 45.3947 14.232C45.4368 14.729 45.4368 15.2261 45.4621 15.7316C43.6003 16.355 40.281 16.8268 37.2987 16.8268C36.8437 16.8268 36.3888 16.8183 35.9591 16.7931V15.1755C36.136 15.1755 36.313 15.1755 36.4899 15.1755C39.329 15.1755 42.2102 15.0492 45.2431 14.1225C45.2768 14.1225 45.2936 14.1225 45.3189 14.1225ZM45.3189 13.9708C45.3189 13.9708 45.2683 13.9708 45.2346 13.9708C45.2262 13.9708 45.2094 13.9708 45.201 13.9708C42.3534 14.8385 39.6575 15.0155 36.4899 15.0155C36.313 15.0155 36.1445 15.0155 35.9676 15.0155C35.9676 15.0155 35.8917 15.0323 35.858 15.0576C35.8328 15.0829 35.8159 15.125 35.8159 15.1671V16.7847C35.8159 16.8689 35.8749 16.9363 35.9507 16.9363C36.3804 16.9616 36.8353 16.97 37.2987 16.97C40.1883 16.97 43.5581 16.515 45.5042 15.8663C45.5716 15.8411 45.6137 15.7821 45.6053 15.7147C45.6053 15.5462 45.5969 15.3862 45.5885 15.2177C45.5801 14.8891 45.5717 14.5521 45.538 14.2151V14.1899C45.538 14.1309 45.5211 13.9624 45.302 13.9624L45.3189 13.9708Z" fill="#222C4C"/>
<path opacity="0.3" d="M15.7148 20.5591H15.6137V20.8539C15.6137 20.8539 15.58 20.9298 15.5379 20.9298H2.31128V21.0814C2.31128 21.0814 2.34495 21.1572 2.38707 21.1572H15.7148C15.7569 21.1572 15.7907 21.1235 15.7907 21.0814V20.6349C15.7907 20.6349 15.7569 20.5591 15.7148 20.5591Z" fill="url(#paint24_linear_417_8761)"/>
<path opacity="0.3" d="M15.7148 21.8311H15.6137V22.1259C15.6137 22.1259 15.58 22.2017 15.5379 22.2017H2.31128V22.3534C2.31128 22.3534 2.34495 22.4292 2.38707 22.4292H15.7148C15.7569 22.4292 15.7907 22.3955 15.7907 22.3534V21.9069C15.7907 21.9069 15.7569 21.8311 15.7148 21.8311Z" fill="url(#paint25_linear_417_8761)"/>
<path opacity="0.3" d="M15.7148 23.103H15.6137V23.3979C15.6137 23.3979 15.58 23.4737 15.5379 23.4737H2.31128V23.6253C2.31128 23.6253 2.34495 23.7012 2.38707 23.7012H15.7148C15.7569 23.7012 15.7907 23.6675 15.7907 23.6253V23.1788C15.7907 23.1788 15.7569 23.103 15.7148 23.103Z" fill="url(#paint26_linear_417_8761)"/>
<path opacity="0.3" d="M15.7148 24.3755H15.6137V24.6704C15.6137 24.6704 15.58 24.7462 15.5379 24.7462H2.31128V24.8978C2.31128 24.8978 2.34495 24.9736 2.38707 24.9736H15.7148C15.7569 24.9736 15.7907 24.9399 15.7907 24.8978V24.4513C15.7907 24.4513 15.7569 24.3755 15.7148 24.3755Z" fill="url(#paint27_linear_417_8761)"/>
<path d="M15.7658 19.3377V19.7842H2.43801V19.3377H15.7658ZM15.7658 19.186H2.43801C2.35377 19.186 2.28638 19.2535 2.28638 19.3377V19.7842C2.28638 19.8684 2.35377 19.9358 2.43801 19.9358H15.7658C15.85 19.9358 15.9174 19.8684 15.9174 19.7842V19.3377C15.9174 19.2535 15.85 19.186 15.7658 19.186Z" fill="#222C4C"/>
<path d="M15.7658 20.6179V21.0644H2.43801V20.6179H15.7658ZM15.7658 20.4663H2.43801C2.35377 20.4663 2.28638 20.5337 2.28638 20.6179V21.0644C2.28638 21.1487 2.35377 21.2161 2.43801 21.2161H15.7658C15.85 21.2161 15.9174 21.1487 15.9174 21.0644V20.6179C15.9174 20.5337 15.85 20.4663 15.7658 20.4663Z" fill="#222C4C"/>
<path d="M15.7658 21.907V22.3535H2.43801V21.907H15.7658ZM15.7658 21.7554H2.43801C2.35377 21.7554 2.28638 21.8228 2.28638 21.907V22.3535C2.28638 22.4378 2.35377 22.5051 2.43801 22.5051H15.7658C15.85 22.5051 15.9174 22.4378 15.9174 22.3535V21.907C15.9174 21.8228 15.85 21.7554 15.7658 21.7554Z" fill="#222C4C"/>
<path d="M15.7658 23.1873V23.6338H2.43801V23.1873H15.7658ZM15.7658 23.0356H2.43801C2.35377 23.0356 2.28638 23.103 2.28638 23.1873V23.6338C2.28638 23.718 2.35377 23.7854 2.43801 23.7854H15.7658C15.85 23.7854 15.9174 23.718 15.9174 23.6338V23.1873C15.9174 23.103 15.85 23.0356 15.7658 23.0356Z" fill="#222C4C"/>
<path d="M15.7658 24.4763V24.9228H2.43801V24.4763H15.7658ZM15.7658 24.3247H2.43801C2.35377 24.3247 2.28638 24.3921 2.28638 24.4763V24.9228C2.28638 25.0071 2.35377 25.0745 2.43801 25.0745H15.7658C15.85 25.0745 15.9174 25.0071 15.9174 24.9228V24.4763C15.9174 24.3921 15.85 24.3247 15.7658 24.3247Z" fill="#222C4C"/>
<path opacity="0.3" d="M51.8649 28.1915C51.8649 28.1915 51.9071 28.2337 51.9324 28.2337C51.9324 28.2337 51.9408 28.2337 51.9492 28.2337C52.0756 28.2084 52.1682 28.141 52.2356 28.0315C52.3536 27.8209 52.3452 27.4755 52.2188 27.1132C52.143 26.8352 52.025 26.5235 51.8313 26.2118C51.8734 26.633 51.7723 26.9447 51.1742 26.4729C51.1742 26.4729 47.9896 23.5917 44.1396 26.1949C44.1396 26.1949 42.6147 27.3912 41.9239 29.0761H14.7124C14.7124 29.0761 13.5161 26.0686 9.43859 26.1191C9.43859 26.1191 5.31052 26.1949 4.06368 28.4359C4.06368 28.4359 1.69635 28.4359 1.41833 23.8276C1.40991 23.6591 1.39307 23.5075 1.37622 23.3643L1.40995 25.403C1.51105 27.9641 2.31135 29.3289 4.11422 29.9776C4.11422 29.9776 4.19007 29.9439 4.19007 29.9017C4.27431 28.3432 6.50681 27.0711 9.16899 27.0711C11.8312 27.0711 13.9795 28.2758 14.1395 29.8259C14.1395 29.868 14.1732 29.8933 14.2153 29.8933H42.2525C42.2525 29.8933 42.303 29.8765 42.3199 29.8512L42.4715 29.5479C43.0107 27.2227 45.0495 25.6052 47.4336 25.6052C49.2618 25.6052 50.9635 26.5993 51.8649 28.1915Z" fill="url(#paint28_linear_417_8761)"/>
<path d="M0.862098 16.0186C0.794701 16.0523 0.744141 16.1281 0.744141 16.2039V17.4592H0.862098V16.0186Z" fill="white"/>
<path d="M49.211 23.1876C49.211 23.6678 49.1689 24.0553 49.1099 24.0553C49.0509 24.0553 49.0088 23.6678 49.0088 23.1876C49.0088 22.7074 49.0509 22.3198 49.1099 22.3198C49.1689 22.3198 49.211 22.7074 49.211 23.1876Z" fill="white"/>
<defs>
<linearGradient id="paint0_linear_417_8761" x1="47.0882" y1="21.5952" x2="47.0882" y2="25.2262" gradientUnits="userSpaceOnUse">
<stop/>
<stop offset="1"/>
</linearGradient>
<linearGradient id="paint1_linear_417_8761" x1="1.32548" y1="15.5632" x2="1.32548" y2="19.5902" gradientUnits="userSpaceOnUse">
<stop/>
<stop offset="1"/>
</linearGradient>
<linearGradient id="paint2_linear_417_8761" x1="18.3687" y1="20.9214" x2="18.3687" y2="27.1051" gradientUnits="userSpaceOnUse">
<stop/>
<stop offset="1"/>
</linearGradient>
<linearGradient id="paint3_linear_417_8761" x1="17.3492" y1="20.9803" x2="20.0198" y2="20.9803" gradientUnits="userSpaceOnUse">
<stop/>
<stop offset="1"/>
</linearGradient>
<linearGradient id="paint4_linear_417_8761" x1="48.1665" y1="27.4082" x2="48.1665" y2="35.6306" gradientUnits="userSpaceOnUse">
<stop/>
<stop offset="1"/>
</linearGradient>
<linearGradient id="paint5_linear_417_8761" x1="47.9475" y1="29.6324" x2="47.9475" y2="32.3873" gradientUnits="userSpaceOnUse">
<stop/>
<stop offset="1"/>
</linearGradient>
<linearGradient id="paint6_linear_417_8761" x1="47.7537" y1="30.3234" x2="47.7537" y2="31.7303" gradientUnits="userSpaceOnUse">
<stop/>
<stop offset="1"/>
</linearGradient>
<linearGradient id="paint7_linear_417_8761" x1="46.4562" y1="30.812" x2="46.4562" y2="27.4506" gradientUnits="userSpaceOnUse">
<stop/>
<stop offset="1"/>
</linearGradient>
<linearGradient id="paint8_linear_417_8761" x1="26.8186" y1="2.00781" x2="26.8186" y2="28.7223" gradientUnits="userSpaceOnUse">
<stop/>
<stop offset="1"/>
</linearGradient>
<linearGradient id="paint9_linear_417_8761" x1="18.6466" y1="0.323129" x2="18.6466" y2="17.9053" gradientUnits="userSpaceOnUse">
<stop stop-color="#FF6C96"/>
<stop offset="0.33" stop-color="#FF6C96"/>
<stop offset="0.88" stop-color="#E64563"/>
<stop offset="1" stop-color="#E33F68"/>
</linearGradient>
<linearGradient id="paint10_linear_417_8761" x1="18.7478" y1="0.643066" x2="18.7478" y2="17.8546" gradientUnits="userSpaceOnUse">
<stop/>
<stop offset="1"/>
</linearGradient>
<linearGradient id="paint11_linear_417_8761" x1="4.81311" y1="32.5473" x2="13.819" y2="32.5473" gradientUnits="userSpaceOnUse">
<stop/>
<stop offset="1"/>
</linearGradient>
<linearGradient id="paint12_linear_417_8761" x1="7.93896" y1="31.2922" x2="10.837" y2="31.2922" gradientUnits="userSpaceOnUse">
<stop/>
<stop offset="1"/>
</linearGradient>
<linearGradient id="paint13_linear_417_8761" x1="8.46094" y1="31.2501" x2="10.1795" y2="31.2501" gradientUnits="userSpaceOnUse">
<stop/>
<stop offset="1"/>
</linearGradient>
<linearGradient id="paint14_linear_417_8761" x1="8.90796" y1="29.9946" x2="12.0083" y2="29.9946" gradientUnits="userSpaceOnUse">
<stop/>
<stop offset="1"/>
</linearGradient>
<linearGradient id="paint15_linear_417_8761" x1="48.8827" y1="23.0782" x2="49.5651" y2="23.0782" gradientUnits="userSpaceOnUse">
<stop/>
<stop offset="1"/>
</linearGradient>
<linearGradient id="paint16_linear_417_8761" x1="28.916" y1="20.5928" x2="28.916" y2="28.5709" gradientUnits="userSpaceOnUse">
<stop/>
<stop offset="1"/>
</linearGradient>
<linearGradient id="paint17_linear_417_8761" x1="26.5324" y1="21.0394" x2="31.9409" y2="21.0394" gradientUnits="userSpaceOnUse">
<stop/>
<stop offset="1"/>
</linearGradient>
<linearGradient id="paint18_linear_417_8761" x1="40.5506" y1="1.47754" x2="40.5506" y2="15.1339" gradientUnits="userSpaceOnUse">
<stop/>
<stop offset="1"/>
</linearGradient>
<linearGradient id="paint19_linear_417_8761" x1="40.5255" y1="2.31152" x2="40.5255" y2="14.5946" gradientUnits="userSpaceOnUse">
<stop stop-color="#A8E5E1"/>
<stop offset="1" stop-color="#A0C0E1"/>
</linearGradient>
<linearGradient id="paint20_linear_417_8761" x1="40.5253" y1="2.69885" x2="40.5253" y2="14.5439" gradientUnits="userSpaceOnUse">
<stop/>
<stop offset="1"/>
</linearGradient>
<linearGradient id="paint21_linear_417_8761" x1="39.6157" y1="18.057" x2="43.4742" y2="18.057" gradientUnits="userSpaceOnUse">
<stop/>
<stop offset="1"/>
</linearGradient>
<linearGradient id="paint22_linear_417_8761" x1="2.31128" y1="19.5312" x2="15.7907" y2="19.5312" gradientUnits="userSpaceOnUse">
<stop/>
<stop offset="1"/>
</linearGradient>
<linearGradient id="paint23_linear_417_8761" x1="35.8837" y1="15.5293" x2="45.5383" y2="15.5293" gradientUnits="userSpaceOnUse">
<stop/>
<stop offset="1"/>
</linearGradient>
<linearGradient id="paint24_linear_417_8761" x1="2.31128" y1="20.8624" x2="15.7907" y2="20.8624" gradientUnits="userSpaceOnUse">
<stop/>
<stop offset="1"/>
</linearGradient>
<linearGradient id="paint25_linear_417_8761" x1="2.31128" y1="22.1343" x2="15.7907" y2="22.1343" gradientUnits="userSpaceOnUse">
<stop/>
<stop offset="1"/>
</linearGradient>
<linearGradient id="paint26_linear_417_8761" x1="2.31128" y1="23.4063" x2="15.7907" y2="23.4063" gradientUnits="userSpaceOnUse">
<stop/>
<stop offset="1"/>
</linearGradient>
<linearGradient id="paint27_linear_417_8761" x1="2.31128" y1="24.6788" x2="15.7907" y2="24.6788" gradientUnits="userSpaceOnUse">
<stop/>
<stop offset="1"/>
</linearGradient>
<linearGradient id="paint28_linear_417_8761" x1="26.8438" y1="23.3643" x2="26.8438" y2="29.9776" gradientUnits="userSpaceOnUse">
<stop/>
<stop offset="1"/>
</linearGradient>
</defs>
</svg>
